
<svg version="1.0" xmlns="http://www.w3.org/2000/svg"
 width="400.000000pt" height="300.000000pt" viewBox="0 0 400.000000 300.000000"
 preserveAspectRatio="xMidYMid meet">

<g transform="translate(0.000000,300.000000) scale(0.100000,-0.100000)"
fill="#000000" stroke="none">
<path d="M102 1503 l3 -218 28 -3 27 -3 0 110 c0 61 4 111 9 111 8 0 29 -29
83 -115 7 -11 25 -35 41 -53 15 -18 27 -37 27 -43 0 -6 12 -9 28 -7 41 5 42
47 3 97 -17 21 -31 44 -31 49 0 6 -6 15 -13 19 -8 4 -22 20 -32 36 -17 27 -17
27 7 27 14 0 40 10 59 23 32 21 34 27 37 84 2 52 -1 66 -18 83 -18 18 -32 20
-140 20 l-120 0 2 -217z"/>
<path d="M590 1678 c-7 -24 -22 -79 -35 -123 -13 -44 -33 -112 -44 -151 -25
-85 -26 -113 -5 -121 25 -9 46 9 63 55 15 42 15 42 67 42 51 0 51 0 57 -36 7
-43 23 -64 49 -64 38 0 35 44 -17 225 -67 230 -58 210 -92 213 -30 3 -33 0
-43 -40z"/>
<path d="M880 1511 c0 -220 4 -238 47 -229 16 3 19 19 23 153 3 83 7 142 8
133 1 -10 14 -44 28 -75 15 -32 37 -80 50 -108 13 -27 26 -62 30 -77 6 -26 10
-28 55 -28 l49 0 0 220 0 220 -35 0 -35 0 -1 -147 c0 -134 -2 -145 -14 -118
-49 107 -65 145 -65 154 0 5 -11 32 -26 60 -24 50 -26 51 -70 51 l-44 0 0
-209z"/>
<path d="M1280 1690 c0 -25 4 -30 25 -30 l25 0 0 -155 0 -155 -25 0 c-22 0
-25 -4 -25 -35 l0 -35 78 0 c96 0 109 8 156 101 48 94 49 153 4 241 -50 99
-48 98 -150 98 l-88 0 0 -30z m176 -107 l37 -78 -27 -48 c-14 -26 -26 -52 -26
-59 0 -14 -30 -48 -42 -48 -4 0 -8 70 -8 155 0 186 9 197 66 78z"/>
<path d="M1752 1707 c-26 -31 -92 -174 -92 -200 0 -36 63 -171 95 -203 13 -13
33 -24 44 -24 30 0 69 20 75 39 2 9 14 32 24 51 34 59 52 107 52 135 0 14 -20
69 -45 121 l-45 94 -49 0 c-27 0 -53 -6 -59 -13z m113 -168 c13 -35 11 -41
-22 -108 l-36 -72 -17 29 c-10 15 -26 49 -38 74 -22 50 -22 48 31 155 l21 42
24 -42 c13 -23 30 -58 37 -78z"/>
<path d="M2060 1505 c0 -190 2 -216 16 -222 9 -3 24 -2 33 4 13 8 17 37 21
164 l5 154 19 -42 c16 -36 25 -43 48 -43 23 0 29 6 38 40 20 74 29 42 32 -111
3 -127 6 -154 19 -162 9 -6 24 -7 33 -4 14 6 16 32 16 222 l0 215 -50 0 c-33
0 -50 -4 -50 -12 0 -7 -10 -25 -23 -39 l-22 -26 -25 38 c-22 35 -28 39 -67 39
l-43 0 0 -215z"/>
<path d="M2914 1687 c-65 -101 -90 -200 -60 -242 7 -11 17 -31 21 -45 8 -27
53 -100 70 -112 41 -30 106 14 140 96 10 22 24 56 32 75 19 44 12 77 -39 179
l-41 82 -51 0 c-46 0 -53 -3 -72 -33z m132 -165 c5 -26 -1 -47 -27 -98 -38
-75 -40 -74 -85 26 -25 54 -25 55 -7 95 10 22 26 55 37 73 l19 33 28 -48 c16
-26 32 -63 35 -81z"/>
<path d="M3232 1509 c3 -189 5 -213 21 -223 12 -8 22 -8 35 0 14 9 18 30 22
110 l5 99 34 -52 c19 -29 38 -53 42 -53 4 0 11 -10 15 -22 4 -12 21 -37 39
-56 24 -26 37 -33 53 -27 33 10 27 39 -20 107 -24 33 -51 73 -60 88 l-17 28
34 6 c18 4 45 16 59 27 22 17 26 28 26 73 0 39 -6 61 -21 80 -20 26 -22 26
-145 26 l-124 0 2 -211z"/>
<path d="M3713 1684 c-18 -21 -33 -40 -33 -43 0 -2 -12 -18 -27 -34 -27 -27
-28 -33 -31 -148 l-4 -119 33 -31 c32 -30 35 -31 121 -27 119 4 130 15 136
133 l5 86 -74 -3 -74 -3 0 -30 c0 -27 3 -30 38 -33 35 -3 37 -5 37 -37 0 -37
-12 -45 -71 -45 -71 0 -79 10 -79 99 l0 78 50 66 50 66 57 3 c54 3 58 5 58 28
0 24 -2 25 -80 28 l-80 2 -32 -36z"/>
</g>
</svg>
